<?xml version="1.0" encoding="utf-8"?>
<!-- Generator: Adobe Illustrator 15.1.0, SVG Export Plug-In . SVG Version: 6.00 Build 0)  -->
<!DOCTYPE svg PUBLIC "-//W3C//DTD SVG 1.1//EN" "http://www.w3.org/Graphics/SVG/1.1/DTD/svg11.dtd">
<svg version="1.1" id="Layer_1" xmlns="http://www.w3.org/2000/svg" xmlns:xlink="http://www.w3.org/1999/xlink" x="0px" y="0px"
	 width="1200px" height="300px" viewBox="0 0 1200 300" enable-background="new 0 0 1200 300" xml:space="preserve">
<rect opacity="0.5" fill="#00B194" width="30" height="30"/>
<rect x="210" opacity="0.5" fill="#45BEA5" width="30" height="30"/>
<rect x="240" opacity="0.5" fill="#7CCBB9" width="30" height="30"/>
<rect x="270" opacity="0.5" fill="#00B79C" width="30" height="30"/>
<rect x="30" opacity="0.5" fill="#45BEA5" width="30" height="30"/>
<rect x="60" opacity="0.5" fill="#A8DBCE" width="30" height="30"/>
<rect x="90" opacity="0.5" fill="#7CCBB9" width="30" height="30"/>
<rect x="120" opacity="0.5" fill="#BDE3D9" width="30" height="30"/>
<rect x="150" opacity="0.5" fill="#64C4AF" width="30" height="30"/>
<rect x="180" opacity="0.5" fill="#92D2C3" width="30" height="30"/>
<rect x="300" opacity="0.5" fill="#64C4AF" width="30" height="30"/>
<rect x="330" opacity="0.5" fill="#00B194" width="30" height="30"/>
<rect x="540" opacity="0.5" fill="#45BEA5" width="30" height="30"/>
<rect x="570" opacity="0.5" fill="#7CCBB9" width="30" height="30"/>
<rect x="600" opacity="0.5" fill="#00B79C" width="30" height="30"/>
<rect x="360" opacity="0.5" fill="#45BEA5" width="30" height="30"/>
<rect x="390" opacity="0.5" fill="#A8DBCE" width="30" height="30"/>
<rect x="420" opacity="0.5" fill="#7CCBB9" width="30" height="30"/>
<rect x="450" opacity="0.5" fill="#BDE3D9" width="30" height="30"/>
<rect x="480" opacity="0.5" fill="#64C4AF" width="30" height="30"/>
<rect x="510" opacity="0.5" fill="#92D2C3" width="30" height="30"/>
<rect x="630" opacity="0.5" fill="#00B194" width="30" height="30"/>
<rect x="840" opacity="0.5" fill="#45BEA5" width="30" height="30"/>
<rect x="870" opacity="0.5" fill="#7CCBB9" width="30" height="30"/>
<rect x="900" opacity="0.5" fill="#00B79C" width="30" height="30"/>
<rect x="660" opacity="0.5" fill="#45BEA5" width="30" height="30"/>
<rect x="690" opacity="0.5" fill="#A8DBCE" width="30" height="30"/>
<rect x="720" opacity="0.5" fill="#7CCBB9" width="30" height="30"/>
<rect x="750" opacity="0.5" fill="#BDE3D9" width="30" height="30"/>
<rect x="780" opacity="0.5" fill="#64C4AF" width="30" height="30"/>
<rect x="810" opacity="0.5" fill="#92D2C3" width="30" height="30"/>
<rect x="930" opacity="0.5" fill="#64C4AF" width="30" height="30"/>
<rect x="960" opacity="0.5" fill="#00B194" width="30" height="30"/>
<rect x="1170" opacity="0.5" fill="#45BEA5" width="30" height="30"/>
<rect x="990" opacity="0.5" fill="#45BEA5" width="30" height="30"/>
<rect x="1020" opacity="0.5" fill="#A8DBCE" width="30" height="30"/>
<rect x="1050" opacity="0.5" fill="#7CCBB9" width="30" height="30"/>
<rect x="1080" opacity="0.5" fill="#BDE3D9" width="30" height="30"/>
<rect x="1110" opacity="0.5" fill="#64C4AF" width="30" height="30"/>
<rect x="1140" opacity="0.5" fill="#92D2C3" width="30" height="30"/>
<rect x="30" y="30" opacity="0.5" fill="#00B194" width="30" height="30"/>
<rect x="240" y="30" opacity="0.5" fill="#45BEA5" width="30" height="30"/>
<rect x="270" y="30" opacity="0.5" fill="#7CCBB9" width="30" height="30"/>
<rect x="300" y="30" opacity="0.5" fill="#00B79C" width="30" height="30"/>
<rect x="60" y="30" opacity="0.5" fill="#45BEA5" width="30" height="30"/>
<rect x="90" y="30" opacity="0.5" fill="#A8DBCE" width="30" height="30"/>
<rect x="120" y="30" opacity="0.5" fill="#7CCBB9" width="30" height="30"/>
<rect x="150" y="30" opacity="0.5" fill="#BDE3D9" width="30" height="30"/>
<rect x="180" y="30" opacity="0.5" fill="#64C4AF" width="30" height="30"/>
<rect x="210" y="30" opacity="0.5" fill="#92D2C3" width="30" height="30"/>
<rect x="330" y="30" opacity="0.5" fill="#64C4AF" width="30" height="30"/>
<rect x="360" y="30" opacity="0.5" fill="#00B194" width="30" height="30"/>
<rect x="570" y="30" opacity="0.5" fill="#45BEA5" width="30" height="30"/>
<rect x="600" y="30" opacity="0.5" fill="#7CCBB9" width="30" height="30"/>
<rect x="630" y="30" opacity="0.5" fill="#00B79C" width="30" height="30"/>
<rect x="390" y="30" opacity="0.5" fill="#45BEA5" width="30" height="30"/>
<rect x="420" y="30" opacity="0.5" fill="#A8DBCE" width="30" height="30"/>
<rect x="450" y="30" opacity="0.5" fill="#7CCBB9" width="30" height="30"/>
<rect x="480" y="30" opacity="0.5" fill="#BDE3D9" width="30" height="30"/>
<rect x="510" y="30" opacity="0.5" fill="#64C4AF" width="30" height="30"/>
<rect x="540" y="30" opacity="0.5" fill="#92D2C3" width="30" height="30"/>
<rect x="660" y="30" opacity="0.5" fill="#00B194" width="30" height="30"/>
<rect x="870" y="30" opacity="0.5" fill="#45BEA5" width="30" height="30"/>
<rect x="900" y="30" opacity="0.5" fill="#7CCBB9" width="30" height="30"/>
<rect x="930" y="30" opacity="0.5" fill="#00B79C" width="30" height="30"/>
<rect x="690" y="30" opacity="0.5" fill="#45BEA5" width="30" height="30"/>
<rect x="720" y="30" opacity="0.5" fill="#A8DBCE" width="30" height="30"/>
<rect x="750" y="30" opacity="0.5" fill="#7CCBB9" width="30" height="30"/>
<rect x="780" y="30" opacity="0.5" fill="#BDE3D9" width="30" height="30"/>
<rect x="810" y="30" opacity="0.5" fill="#64C4AF" width="30" height="30"/>
<rect x="840" y="30" opacity="0.5" fill="#92D2C3" width="30" height="30"/>
<rect x="960" y="30" opacity="0.5" fill="#64C4AF" width="30" height="30"/>
<rect x="990" y="30" opacity="0.5" fill="#00B194" width="30" height="30"/>
<rect x="1020" y="30" opacity="0.5" fill="#45BEA5" width="30" height="30"/>
<rect x="1050" y="30" opacity="0.5" fill="#A8DBCE" width="30" height="30"/>
<rect x="1080" y="30" opacity="0.5" fill="#7CCBB9" width="30" height="30"/>
<rect x="1110" y="30" opacity="0.5" fill="#BDE3D9" width="30" height="30"/>
<rect x="1140" y="30" opacity="0.5" fill="#64C4AF" width="30" height="30"/>
<rect x="1170" y="30" opacity="0.5" fill="#92D2C3" width="30" height="30"/>
<rect y="30" opacity="0.5" fill="#45BEA5" width="30" height="30"/>
<rect x="60" y="60" opacity="0.5" fill="#00B194" width="30" height="30"/>
<rect x="270" y="60" opacity="0.5" fill="#45BEA5" width="30" height="30"/>
<rect x="300" y="60" opacity="0.5" fill="#7CCBB9" width="30" height="30"/>
<rect x="330" y="60" opacity="0.5" fill="#00B79C" width="30" height="30"/>
<rect x="90" y="60" opacity="0.5" fill="#45BEA5" width="30" height="30"/>
<rect x="120" y="60" opacity="0.5" fill="#A8DBCE" width="30" height="30"/>
<rect x="150" y="60" opacity="0.5" fill="#7CCBB9" width="30" height="30"/>
<rect x="180" y="60" opacity="0.5" fill="#BDE3D9" width="30" height="30"/>
<rect x="210" y="60" opacity="0.5" fill="#64C4AF" width="30" height="30"/>
<rect x="240" y="60" opacity="0.5" fill="#92D2C3" width="30" height="30"/>
<rect x="360" y="60" opacity="0.5" fill="#64C4AF" width="30" height="30"/>
<rect x="390" y="60" opacity="0.5" fill="#00B194" width="30" height="30"/>
<rect x="600" y="60" opacity="0.5" fill="#45BEA5" width="30" height="30"/>
<rect x="630" y="60" opacity="0.5" fill="#7CCBB9" width="30" height="30"/>
<rect x="660" y="60" opacity="0.5" fill="#00B79C" width="30" height="30"/>
<rect x="420" y="60" opacity="0.5" fill="#45BEA5" width="30" height="30"/>
<rect x="450" y="60" opacity="0.5" fill="#A8DBCE" width="30" height="30"/>
<rect x="480" y="60" opacity="0.5" fill="#7CCBB9" width="30" height="30"/>
<rect x="510" y="60" opacity="0.5" fill="#BDE3D9" width="30" height="30"/>
<rect x="540" y="60" opacity="0.5" fill="#64C4AF" width="30" height="30"/>
<rect x="570" y="60" opacity="0.5" fill="#92D2C3" width="30" height="30"/>
<rect x="690" y="60" opacity="0.5" fill="#00B194" width="30" height="30"/>
<rect x="900" y="60" opacity="0.5" fill="#45BEA5" width="30" height="30"/>
<rect x="930" y="60" opacity="0.5" fill="#7CCBB9" width="30" height="30"/>
<rect x="960" y="60" opacity="0.5" fill="#00B79C" width="30" height="30"/>
<rect x="720" y="60" opacity="0.5" fill="#45BEA5" width="30" height="30"/>
<rect x="750" y="60" opacity="0.5" fill="#A8DBCE" width="30" height="30"/>
<rect x="780" y="60" opacity="0.5" fill="#7CCBB9" width="30" height="30"/>
<rect x="810" y="60" opacity="0.5" fill="#BDE3D9" width="30" height="30"/>
<rect x="840" y="60" opacity="0.5" fill="#64C4AF" width="30" height="30"/>
<rect x="870" y="60" opacity="0.5" fill="#92D2C3" width="30" height="30"/>
<rect x="990" y="60" opacity="0.5" fill="#64C4AF" width="30" height="30"/>
<rect x="1020" y="60" opacity="0.5" fill="#00B194" width="30" height="30"/>
<rect x="1050" y="60" opacity="0.5" fill="#45BEA5" width="30" height="30"/>
<rect x="1080" y="60" opacity="0.5" fill="#A8DBCE" width="30" height="30"/>
<rect x="1110" y="60" opacity="0.5" fill="#7CCBB9" width="30" height="30"/>
<rect x="1140" y="60" opacity="0.5" fill="#BDE3D9" width="30" height="30"/>
<rect x="1170" y="60" opacity="0.5" fill="#64C4AF" width="30" height="30"/>
<rect x="30" y="60" opacity="0.5" fill="#45BEA5" width="30" height="30"/>
<rect x="0" y="60" transform="matrix(1 0.0027 -0.0027 1 0.2051 -0.0407)" opacity="0.5" fill="#92D2C3" width="30" height="30"/>
<rect x="90" y="90" opacity="0.5" fill="#00B194" width="30" height="30"/>
<rect x="300" y="90" opacity="0.5" fill="#45BEA5" width="30" height="30"/>
<rect x="330" y="90" opacity="0.5" fill="#7CCBB9" width="30" height="30"/>
<rect x="360" y="90" opacity="0.5" fill="#00B79C" width="30" height="30"/>
<rect x="120" y="90" opacity="0.5" fill="#45BEA5" width="30" height="30"/>
<rect x="150" y="90" opacity="0.5" fill="#A8DBCE" width="30" height="30"/>
<rect x="180" y="90" opacity="0.5" fill="#7CCBB9" width="30" height="30"/>
<rect x="210" y="90" opacity="0.5" fill="#BDE3D9" width="30" height="30"/>
<rect x="240" y="90" opacity="0.5" fill="#64C4AF" width="30" height="30"/>
<rect x="270" y="90" opacity="0.5" fill="#92D2C3" width="30" height="30"/>
<rect x="390" y="90" opacity="0.5" fill="#64C4AF" width="30" height="30"/>
<rect x="420" y="90" opacity="0.5" fill="#00B194" width="30" height="30"/>
<rect x="630" y="90" opacity="0.5" fill="#45BEA5" width="30" height="30"/>
<rect x="660" y="90" opacity="0.5" fill="#7CCBB9" width="30" height="30"/>
<rect x="690" y="90" opacity="0.5" fill="#00B79C" width="30" height="30"/>
<rect x="450" y="90" opacity="0.5" fill="#45BEA5" width="30" height="30"/>
<rect x="480" y="90" opacity="0.5" fill="#A8DBCE" width="30" height="30"/>
<rect x="510" y="90" opacity="0.5" fill="#7CCBB9" width="30" height="30"/>
<rect x="540" y="90" opacity="0.5" fill="#BDE3D9" width="30" height="30"/>
<rect x="570" y="90" opacity="0.5" fill="#64C4AF" width="30" height="30"/>
<rect x="600" y="90" opacity="0.5" fill="#92D2C3" width="30" height="30"/>
<rect x="720" y="90" opacity="0.5" fill="#00B194" width="30" height="30"/>
<rect x="930" y="90" opacity="0.5" fill="#45BEA5" width="30" height="30"/>
<rect x="960" y="90" opacity="0.5" fill="#7CCBB9" width="30" height="30"/>
<rect x="990" y="90" opacity="0.5" fill="#00B79C" width="30" height="30"/>
<rect x="750" y="90" opacity="0.5" fill="#45BEA5" width="30" height="30"/>
<rect x="780" y="90" opacity="0.5" fill="#A8DBCE" width="30" height="30"/>
<rect x="810" y="90" opacity="0.5" fill="#7CCBB9" width="30" height="30"/>
<rect x="840" y="90" opacity="0.5" fill="#BDE3D9" width="30" height="30"/>
<rect x="870" y="90" opacity="0.5" fill="#64C4AF" width="30" height="30"/>
<rect x="900" y="90" opacity="0.5" fill="#92D2C3" width="30" height="30"/>
<rect x="1020" y="90" opacity="0.5" fill="#64C4AF" width="30" height="30"/>
<rect x="1050" y="90" opacity="0.5" fill="#00B194" width="30" height="30"/>
<rect x="1080" y="90" opacity="0.5" fill="#45BEA5" width="30" height="30"/>
<rect x="1110" y="90" opacity="0.5" fill="#A8DBCE" width="30" height="30"/>
<rect x="1140" y="90" opacity="0.5" fill="#7CCBB9" width="30" height="30"/>
<rect x="1170" y="90" opacity="0.5" fill="#BDE3D9" width="30" height="30"/>
<rect x="60" y="90" opacity="0.5" fill="#45BEA5" width="30" height="30"/>
<rect y="90" opacity="0.5" fill="#64C4AF" width="30" height="30"/>
<rect x="30" y="90" opacity="0.5" fill="#92D2C3" width="30" height="30"/>
<rect x="120" y="120" opacity="0.5" fill="#00B194" width="30" height="30"/>
<rect x="330" y="120" opacity="0.5" fill="#45BEA5" width="30" height="30"/>
<rect x="360" y="120" opacity="0.5" fill="#7CCBB9" width="30" height="30"/>
<rect x="390" y="120" opacity="0.5" fill="#00B79C" width="30" height="30"/>
<rect x="150" y="120" opacity="0.5" fill="#45BEA5" width="30" height="30"/>
<rect x="180" y="120" opacity="0.5" fill="#A8DBCE" width="30" height="30"/>
<rect x="210" y="120" opacity="0.5" fill="#7CCBB9" width="30" height="30"/>
<rect x="240" y="120" opacity="0.5" fill="#BDE3D9" width="30" height="30"/>
<rect x="270" y="120" opacity="0.5" fill="#64C4AF" width="30" height="30"/>
<rect x="300" y="120" opacity="0.5" fill="#92D2C3" width="30" height="30"/>
<rect x="420" y="120" opacity="0.5" fill="#64C4AF" width="30" height="30"/>
<rect x="450" y="120" opacity="0.5" fill="#00B194" width="30" height="30"/>
<rect x="660" y="120" opacity="0.5" fill="#45BEA5" width="30" height="30"/>
<rect x="690" y="120" opacity="0.5" fill="#7CCBB9" width="30" height="30"/>
<rect x="720" y="120" opacity="0.5" fill="#00B79C" width="30" height="30"/>
<rect x="480" y="120" opacity="0.5" fill="#45BEA5" width="30" height="30"/>
<rect x="510" y="120" opacity="0.5" fill="#A8DBCE" width="30" height="30"/>
<rect x="540" y="120" opacity="0.5" fill="#7CCBB9" width="30" height="30"/>
<rect x="570" y="120" opacity="0.5" fill="#BDE3D9" width="30" height="30"/>
<rect x="600" y="120" opacity="0.5" fill="#64C4AF" width="30" height="30"/>
<rect x="630" y="120" opacity="0.5" fill="#92D2C3" width="30" height="30"/>
<rect x="750" y="120" opacity="0.5" fill="#00B194" width="30" height="30"/>
<rect x="960" y="120" opacity="0.5" fill="#45BEA5" width="30" height="30"/>
<rect x="990" y="120" opacity="0.5" fill="#7CCBB9" width="30" height="30"/>
<rect x="1020" y="120" opacity="0.5" fill="#00B79C" width="30" height="30"/>
<rect x="780" y="120" opacity="0.5" fill="#45BEA5" width="30" height="30"/>
<rect x="810" y="120" opacity="0.5" fill="#A8DBCE" width="30" height="30"/>
<rect x="840" y="120" opacity="0.5" fill="#7CCBB9" width="30" height="30"/>
<rect x="870" y="120" opacity="0.5" fill="#BDE3D9" width="30" height="30"/>
<rect x="900" y="120" opacity="0.5" fill="#64C4AF" width="30" height="30"/>
<rect x="930" y="120" opacity="0.5" fill="#92D2C3" width="30" height="30"/>
<rect x="1050" y="120" opacity="0.5" fill="#64C4AF" width="30" height="30"/>
<rect x="1080" y="120" opacity="0.5" fill="#00B194" width="30" height="30"/>
<rect x="1110" y="120" opacity="0.5" fill="#45BEA5" width="30" height="30"/>
<rect x="1140" y="120" opacity="0.5" fill="#A8DBCE" width="30" height="30"/>
<rect x="1170" y="120" opacity="0.5" fill="#7CCBB9" width="30" height="30"/>
<rect y="120" opacity="0.5" fill="#BDE3D9" width="30" height="30"/>
<rect x="90" y="120" opacity="0.5" fill="#45BEA5" width="30" height="30"/>
<rect x="30" y="120" opacity="0.5" fill="#64C4AF" width="30" height="30"/>
<rect x="60" y="120" opacity="0.5" fill="#92D2C3" width="30" height="30"/>
<rect x="150" y="150" opacity="0.5" fill="#00B194" width="30" height="30"/>
<rect x="360" y="150" opacity="0.5" fill="#45BEA5" width="30" height="30"/>
<rect x="390" y="150" opacity="0.5" fill="#7CCBB9" width="30" height="30"/>
<rect x="420" y="150" opacity="0.5" fill="#00B79C" width="30" height="30"/>
<rect x="180" y="150" opacity="0.5" fill="#45BEA5" width="30" height="30"/>
<rect x="210" y="150" opacity="0.5" fill="#A8DBCE" width="30" height="30"/>
<rect x="240" y="150" opacity="0.5" fill="#7CCBB9" width="30" height="30"/>
<rect x="270" y="150" opacity="0.5" fill="#BDE3D9" width="30" height="30"/>
<rect x="300" y="150" opacity="0.5" fill="#64C4AF" width="30" height="30"/>
<rect x="330" y="150" opacity="0.5" fill="#92D2C3" width="30" height="30"/>
<rect x="450" y="150" opacity="0.5" fill="#64C4AF" width="30" height="30"/>
<rect x="480" y="150" opacity="0.5" fill="#00B194" width="30" height="30"/>
<rect x="690" y="150" opacity="0.5" fill="#45BEA5" width="30" height="30"/>
<rect x="720" y="150" opacity="0.5" fill="#7CCBB9" width="30" height="30"/>
<rect x="750" y="150" opacity="0.5" fill="#00B79C" width="30" height="30"/>
<rect x="510" y="150" opacity="0.5" fill="#45BEA5" width="30" height="30"/>
<rect x="540" y="150" opacity="0.5" fill="#A8DBCE" width="30" height="30"/>
<rect x="570" y="150" opacity="0.5" fill="#7CCBB9" width="30" height="30"/>
<rect x="600" y="150" opacity="0.5" fill="#BDE3D9" width="30" height="30"/>
<rect x="630" y="150" opacity="0.5" fill="#64C4AF" width="30" height="30"/>
<rect x="660" y="150" opacity="0.5" fill="#92D2C3" width="30" height="30"/>
<rect x="780" y="150" opacity="0.5" fill="#00B194" width="30" height="30"/>
<rect x="990" y="150" opacity="0.5" fill="#45BEA5" width="30" height="30"/>
<rect x="1020" y="150" opacity="0.5" fill="#7CCBB9" width="30" height="30"/>
<rect x="1050" y="150" opacity="0.5" fill="#00B79C" width="30" height="30"/>
<rect x="810" y="150" opacity="0.5" fill="#45BEA5" width="30" height="30"/>
<rect x="840" y="150" opacity="0.5" fill="#A8DBCE" width="30" height="30"/>
<rect x="870" y="150" opacity="0.5" fill="#7CCBB9" width="30" height="30"/>
<rect x="900" y="150" opacity="0.5" fill="#BDE3D9" width="30" height="30"/>
<rect x="930" y="150" opacity="0.5" fill="#64C4AF" width="30" height="30"/>
<rect x="960" y="150" opacity="0.5" fill="#92D2C3" width="30" height="30"/>
<rect x="1080" y="150" opacity="0.5" fill="#64C4AF" width="30" height="30"/>
<rect x="1110" y="150" opacity="0.5" fill="#00B194" width="30" height="30"/>
<rect x="1140" y="150" opacity="0.5" fill="#45BEA5" width="30" height="30"/>
<rect x="1170" y="150" opacity="0.5" fill="#A8DBCE" width="30" height="30"/>
<rect y="150" opacity="0.5" fill="#7CCBB9" width="30" height="30"/>
<rect x="30" y="150" opacity="0.5" fill="#BDE3D9" width="30" height="30"/>
<rect x="120" y="150" opacity="0.5" fill="#45BEA5" width="30" height="30"/>
<rect x="60" y="150" opacity="0.5" fill="#64C4AF" width="30" height="30"/>
<rect x="90" y="150" opacity="0.5" fill="#92D2C3" width="30" height="30"/>
<rect x="180" y="180" opacity="0.5" fill="#00B194" width="30" height="30"/>
<rect x="390" y="180" opacity="0.5" fill="#45BEA5" width="30" height="30"/>
<rect x="420" y="180" opacity="0.5" fill="#7CCBB9" width="30" height="30"/>
<rect x="450" y="180" opacity="0.5" fill="#00B79C" width="30" height="30"/>
<rect x="210" y="180" opacity="0.5" fill="#45BEA5" width="30" height="30"/>
<rect x="240" y="180" opacity="0.5" fill="#A8DBCE" width="30" height="30"/>
<rect x="270" y="180" opacity="0.5" fill="#7CCBB9" width="30" height="30"/>
<rect x="300" y="180" opacity="0.5" fill="#BDE3D9" width="30" height="30"/>
<rect x="330" y="180" opacity="0.5" fill="#64C4AF" width="30" height="30"/>
<rect x="360" y="180" opacity="0.5" fill="#92D2C3" width="30" height="30"/>
<rect x="480" y="180" opacity="0.5" fill="#64C4AF" width="30" height="30"/>
<rect x="510" y="180" opacity="0.5" fill="#00B194" width="30" height="30"/>
<rect x="720" y="180" opacity="0.5" fill="#45BEA5" width="30" height="30"/>
<rect x="750" y="180" opacity="0.5" fill="#7CCBB9" width="30" height="30"/>
<rect x="780" y="180" opacity="0.5" fill="#00B79C" width="30" height="30"/>
<rect x="540" y="180" opacity="0.5" fill="#45BEA5" width="30" height="30"/>
<rect x="570" y="180" opacity="0.5" fill="#A8DBCE" width="30" height="30"/>
<rect x="600" y="180" opacity="0.5" fill="#7CCBB9" width="30" height="30"/>
<rect x="630" y="180" opacity="0.5" fill="#BDE3D9" width="30" height="30"/>
<rect x="660" y="180" opacity="0.5" fill="#64C4AF" width="30" height="30"/>
<rect x="690" y="180" opacity="0.5" fill="#92D2C3" width="30" height="30"/>
<rect x="810" y="180" opacity="0.5" fill="#00B194" width="30" height="30"/>
<rect x="1020" y="180" opacity="0.5" fill="#45BEA5" width="30" height="30"/>
<rect x="1050" y="180" opacity="0.5" fill="#7CCBB9" width="30" height="30"/>
<rect x="1080" y="180" opacity="0.5" fill="#00B79C" width="30" height="30"/>
<rect x="840" y="180" opacity="0.5" fill="#45BEA5" width="30" height="30"/>
<rect x="870" y="180" opacity="0.5" fill="#A8DBCE" width="30" height="30"/>
<rect x="900" y="180" opacity="0.5" fill="#7CCBB9" width="30" height="30"/>
<rect x="930" y="180" opacity="0.5" fill="#BDE3D9" width="30" height="30"/>
<rect x="960" y="180" opacity="0.5" fill="#64C4AF" width="30" height="30"/>
<rect x="990" y="180" opacity="0.5" fill="#92D2C3" width="30" height="30"/>
<rect x="1110" y="180" opacity="0.5" fill="#64C4AF" width="30" height="30"/>
<rect x="1140" y="180" opacity="0.5" fill="#00B194" width="30" height="30"/>
<rect x="1170" y="180" opacity="0.5" fill="#45BEA5" width="30" height="30"/>
<rect y="180" opacity="0.5" fill="#A8DBCE" width="30" height="30"/>
<rect x="30" y="180" opacity="0.5" fill="#7CCBB9" width="30" height="30"/>
<rect x="60" y="180" opacity="0.5" fill="#BDE3D9" width="30" height="30"/>
<rect x="150" y="180" opacity="0.5" fill="#45BEA5" width="30" height="30"/>
<rect x="90" y="180" opacity="0.5" fill="#64C4AF" width="30" height="30"/>
<rect x="120" y="180" opacity="0.5" fill="#92D2C3" width="30" height="30"/>
<rect x="210" y="210" opacity="0.5" fill="#00B194" width="30" height="30"/>
<rect x="420" y="210" opacity="0.5" fill="#45BEA5" width="30" height="30"/>
<rect x="450" y="210" opacity="0.5" fill="#7CCBB9" width="30" height="30"/>
<rect x="480" y="210" opacity="0.5" fill="#00B79C" width="30" height="30"/>
<rect x="240" y="210" opacity="0.5" fill="#45BEA5" width="30" height="30"/>
<rect x="270" y="210" opacity="0.5" fill="#A8DBCE" width="30" height="30"/>
<rect x="300" y="210" opacity="0.5" fill="#7CCBB9" width="30" height="30"/>
<rect x="330" y="210" opacity="0.5" fill="#BDE3D9" width="30" height="30"/>
<rect x="360" y="210" opacity="0.5" fill="#64C4AF" width="30" height="30"/>
<rect x="390" y="210" opacity="0.5" fill="#92D2C3" width="30" height="30"/>
<rect x="510" y="210" opacity="0.5" fill="#64C4AF" width="30" height="30"/>
<rect x="540" y="210" opacity="0.5" fill="#00B194" width="30" height="30"/>
<rect x="750" y="210" opacity="0.5" fill="#45BEA5" width="30" height="30"/>
<rect x="780" y="210" opacity="0.5" fill="#7CCBB9" width="30" height="30"/>
<rect x="810" y="210" opacity="0.5" fill="#00B79C" width="30" height="30"/>
<rect x="570" y="210" opacity="0.5" fill="#45BEA5" width="30" height="30"/>
<rect x="600" y="210" opacity="0.5" fill="#A8DBCE" width="30" height="30"/>
<rect x="630" y="210" opacity="0.5" fill="#7CCBB9" width="30" height="30"/>
<rect x="660" y="210" opacity="0.5" fill="#BDE3D9" width="30" height="30"/>
<rect x="690" y="210" opacity="0.5" fill="#64C4AF" width="30" height="30"/>
<rect x="720" y="210" opacity="0.5" fill="#92D2C3" width="30" height="30"/>
<rect x="840" y="210" opacity="0.5" fill="#00B194" width="30" height="30"/>
<rect x="1050" y="210" opacity="0.5" fill="#45BEA5" width="30" height="30"/>
<rect x="1080" y="210" opacity="0.5" fill="#7CCBB9" width="30" height="30"/>
<rect x="1110" y="210" opacity="0.5" fill="#00B79C" width="30" height="30"/>
<rect x="870" y="210" opacity="0.5" fill="#45BEA5" width="30" height="30"/>
<rect x="900" y="210" opacity="0.5" fill="#A8DBCE" width="30" height="30"/>
<rect x="930" y="210" opacity="0.5" fill="#7CCBB9" width="30" height="30"/>
<rect x="960" y="210" opacity="0.5" fill="#BDE3D9" width="30" height="30"/>
<rect x="990" y="210" opacity="0.5" fill="#64C4AF" width="30" height="30"/>
<rect x="1020" y="210" opacity="0.5" fill="#92D2C3" width="30" height="30"/>
<rect x="1140" y="210" opacity="0.5" fill="#64C4AF" width="30" height="30"/>
<rect x="1170" y="210" opacity="0.5" fill="#00B194" width="30" height="30"/>
<rect y="210" opacity="0.5" fill="#45BEA5" width="30" height="30"/>
<rect x="30" y="210" opacity="0.5" fill="#A8DBCE" width="30" height="30"/>
<rect x="60" y="210" opacity="0.5" fill="#7CCBB9" width="30" height="30"/>
<rect x="90" y="210" opacity="0.5" fill="#BDE3D9" width="30" height="30"/>
<rect x="180" y="210" opacity="0.5" fill="#45BEA5" width="30" height="30"/>
<rect x="120" y="210" opacity="0.5" fill="#64C4AF" width="30" height="30"/>
<rect x="150" y="210" opacity="0.5" fill="#92D2C3" width="30" height="30"/>
<rect x="240" y="240" opacity="0.5" fill="#00B194" width="30" height="30"/>
<rect x="450" y="240" opacity="0.5" fill="#45BEA5" width="30" height="30"/>
<rect x="480" y="240" opacity="0.5" fill="#7CCBB9" width="30" height="30"/>
<rect x="510" y="240" opacity="0.5" fill="#00B79C" width="30" height="30"/>
<rect x="270" y="240" opacity="0.5" fill="#45BEA5" width="30" height="30"/>
<rect x="300" y="240" opacity="0.5" fill="#A8DBCE" width="30" height="30"/>
<rect x="330" y="240" opacity="0.5" fill="#7CCBB9" width="30" height="30"/>
<rect x="360" y="240" opacity="0.5" fill="#BDE3D9" width="30" height="30"/>
<rect x="390" y="240" opacity="0.5" fill="#64C4AF" width="30" height="30"/>
<rect x="420" y="240" opacity="0.5" fill="#92D2C3" width="30" height="30"/>
<rect x="540" y="240" opacity="0.5" fill="#64C4AF" width="30" height="30"/>
<rect x="570" y="240" opacity="0.5" fill="#00B194" width="30" height="30"/>
<rect x="780" y="240" opacity="0.5" fill="#45BEA5" width="30" height="30"/>
<rect x="810" y="240" opacity="0.5" fill="#7CCBB9" width="30" height="30"/>
<rect x="840" y="240" opacity="0.5" fill="#00B79C" width="30" height="30"/>
<rect x="600" y="240" opacity="0.5" fill="#45BEA5" width="30" height="30"/>
<rect x="630" y="240" opacity="0.5" fill="#A8DBCE" width="30" height="30"/>
<rect x="660" y="240" opacity="0.5" fill="#7CCBB9" width="30" height="30"/>
<rect x="690" y="240" opacity="0.5" fill="#BDE3D9" width="30" height="30"/>
<rect x="720" y="240" opacity="0.5" fill="#64C4AF" width="30" height="30"/>
<rect x="750" y="240" opacity="0.5" fill="#92D2C3" width="30" height="30"/>
<rect x="870" y="240" opacity="0.5" fill="#00B194" width="30" height="30"/>
<rect x="1080" y="240" opacity="0.5" fill="#45BEA5" width="30" height="30"/>
<rect x="1110" y="240" opacity="0.5" fill="#7CCBB9" width="30" height="30"/>
<rect x="1140" y="240" opacity="0.5" fill="#00B79C" width="30" height="30"/>
<rect x="900" y="240" opacity="0.5" fill="#45BEA5" width="30" height="30"/>
<rect x="930" y="240" opacity="0.5" fill="#A8DBCE" width="30" height="30"/>
<rect x="960" y="240" opacity="0.5" fill="#7CCBB9" width="30" height="30"/>
<rect x="990" y="240" opacity="0.5" fill="#BDE3D9" width="30" height="30"/>
<rect x="1020" y="240" opacity="0.5" fill="#64C4AF" width="30" height="30"/>
<rect x="1050" y="240" opacity="0.5" fill="#92D2C3" width="30" height="30"/>
<rect x="1170" y="240" opacity="0.5" fill="#64C4AF" width="30" height="30"/>
<rect y="240" opacity="0.5" fill="#00B194" width="30" height="30"/>
<rect x="30" y="240" opacity="0.5" fill="#45BEA5" width="30" height="30"/>
<rect x="60" y="240" opacity="0.5" fill="#A8DBCE" width="30" height="30"/>
<rect x="90" y="240" opacity="0.5" fill="#7CCBB9" width="30" height="30"/>
<rect x="120" y="240" opacity="0.5" fill="#BDE3D9" width="30" height="30"/>
<rect x="210" y="240" opacity="0.5" fill="#45BEA5" width="30" height="30"/>
<rect x="150" y="240" opacity="0.5" fill="#64C4AF" width="30" height="30"/>
<rect x="180" y="240" opacity="0.5" fill="#92D2C3" width="30" height="30"/>
<rect x="270" y="270" opacity="0.5" fill="#00B194" width="30" height="30"/>
<rect x="480" y="270" opacity="0.5" fill="#45BEA5" width="30" height="30"/>
<rect x="510" y="270" opacity="0.5" fill="#7CCBB9" width="30" height="30"/>
<rect x="540" y="270" opacity="0.5" fill="#00B79C" width="30" height="30"/>
<rect x="300" y="270" opacity="0.5" fill="#45BEA5" width="30" height="30"/>
<rect x="330" y="270" opacity="0.5" fill="#A8DBCE" width="30" height="30"/>
<rect x="360" y="270" opacity="0.5" fill="#7CCBB9" width="30" height="30"/>
<rect x="390" y="270" opacity="0.5" fill="#BDE3D9" width="30" height="30"/>
<rect x="420" y="270" opacity="0.5" fill="#64C4AF" width="30" height="30"/>
<rect x="450" y="270" opacity="0.5" fill="#92D2C3" width="30" height="30"/>
<rect x="570" y="270" opacity="0.5" fill="#64C4AF" width="30" height="30"/>
<rect x="600" y="270" opacity="0.5" fill="#00B194" width="30" height="30"/>
<rect x="810" y="270" opacity="0.5" fill="#45BEA5" width="30" height="30"/>
<rect x="840" y="270" opacity="0.5" fill="#7CCBB9" width="30" height="30"/>
<rect x="870" y="270" opacity="0.5" fill="#00B79C" width="30" height="30"/>
<rect x="630" y="270" opacity="0.5" fill="#45BEA5" width="30" height="30"/>
<rect x="660" y="270" opacity="0.5" fill="#A8DBCE" width="30" height="30"/>
<rect x="690" y="270" opacity="0.5" fill="#7CCBB9" width="30" height="30"/>
<rect x="720" y="270" opacity="0.5" fill="#BDE3D9" width="30" height="30"/>
<rect x="750" y="270" opacity="0.5" fill="#64C4AF" width="30" height="30"/>
<rect x="780" y="270" opacity="0.5" fill="#92D2C3" width="30" height="30"/>
<rect x="900" y="270" opacity="0.5" fill="#00B194" width="30" height="30"/>
<rect x="1110" y="270" opacity="0.5" fill="#45BEA5" width="30" height="30"/>
<rect x="1140" y="270" opacity="0.5" fill="#7CCBB9" width="30" height="30"/>
<rect x="1170" y="270" opacity="0.5" fill="#00B79C" width="30" height="30"/>
<rect x="930" y="270" opacity="0.5" fill="#45BEA5" width="30" height="30"/>
<rect x="960" y="270" opacity="0.5" fill="#A8DBCE" width="30" height="30"/>
<rect x="990" y="270" opacity="0.5" fill="#7CCBB9" width="30" height="30"/>
<rect x="1020" y="270" opacity="0.5" fill="#BDE3D9" width="30" height="30"/>
<rect x="1050" y="270" opacity="0.5" fill="#64C4AF" width="30" height="30"/>
<rect x="1080" y="270" opacity="0.5" fill="#92D2C3" width="30" height="30"/>
<rect y="270" opacity="0.5" fill="#64C4AF" width="30" height="30"/>
<rect x="30" y="270" opacity="0.5" fill="#00B194" width="30" height="30"/>
<rect x="60" y="270" opacity="0.5" fill="#45BEA5" width="30" height="30"/>
<rect x="90" y="270" opacity="0.5" fill="#A8DBCE" width="30" height="30"/>
<rect x="120" y="270" opacity="0.5" fill="#7CCBB9" width="30" height="30"/>
<rect x="150" y="270" opacity="0.5" fill="#BDE3D9" width="30" height="30"/>
<rect x="240" y="270" opacity="0.5" fill="#45BEA5" width="30" height="30"/>
<rect x="180" y="270" opacity="0.5" fill="#64C4AF" width="30" height="30"/>
<rect x="210" y="270" opacity="0.5" fill="#92D2C3" width="30" height="30"/>
</svg>
