<?xml version="1.0" encoding="utf-8"?>
<!-- Generator: Adobe Illustrator 15.1.0, SVG Export Plug-In . SVG Version: 6.00 Build 0)  -->
<!DOCTYPE svg PUBLIC "-//W3C//DTD SVG 1.1//EN" "http://www.w3.org/Graphics/SVG/1.1/DTD/svg11.dtd">
<svg version="1.1" id="Layer_1" xmlns="http://www.w3.org/2000/svg" xmlns:xlink="http://www.w3.org/1999/xlink" x="0px" y="0px"
	 width="400px" height="400px" viewBox="0 0 400 400" enable-background="new 0 0 400 400" xml:space="preserve">
<g>
	<g>
		<path fill="#FFFFFF" d="M379.812,114.103c5.808-1.905,11.23-5.047,11.23-10.286c0-2.762-1.233-3.905-3.999-3.905
			c-3.236,0-6.572,2.474-8.57,4.473c-3.235,3.236-6.575,7.146-9.235,12.098C371.336,116.388,375.814,115.338,379.812,114.103
			 M385.527,131.816c-4.004,5.239-10.287,10.098-18.194,10.098c-6.004,0-9.524-4.29-9.524-9.811
			c0-17.052,18.857-35.052,31.431-35.052c4.285,0,7.428,1.622,7.428,6.19c0,6.67-5.903,10.291-16.284,13.435
			c-3.052,0.855-9.425,2.281-12.574,2.954c-1.425,2.281-3.334,6.853-3.334,10.469c0,4.86,2.479,7.716,6.862,7.716
			c5.142,0,9.996-3.999,12.755-7.141C384.957,129.816,386.19,130.959,385.527,131.816 M390.481,14.859
			c0.468,0,1.043-0.288,0.854-0.951l-1.811-12.765C389.337,0.286,388.956,0,388.476,0c-0.286,0-0.667,0.193-0.949,0.768
			c-0.573,1.138-1.437,2.093-3.05,2.093c-2.854,0-5.526-2.093-12.283-2.093c-8.861,0-20.575,3.804-20.575,16.664
			c0,12.855,10.286,17.051,19.144,20.288c9.332,3.429,16.766,5.997,16.766,15.715c0,10.854-7.616,14.378-14.858,14.378
			c-8,0-17.427-3.811-20.763-16.477C351.617,50.292,351.367,50,350.61,50c-0.673,0-1.11,0.481-1.11,1.623v16.285
			c0,0.956,0.438,1.431,1.01,1.431c0.381,0,0.792-0.282,1.074-0.763c0.668-0.95,1.396-1.811,3.213-1.811
			c3.613,0,7.888,4.385,18.269,4.385c9.139,0,24.562-2.861,24.562-20.858c0-7.145-2.954-16.289-20.297-21.147
			c-12.279-3.43-16.188-8.57-16.188-14.86c0-5.427,3.242-10.663,12.093-10.663c4.385,0,11.521,1.237,16.288,10.569
			C389.811,14.759,390.094,14.859,390.481,14.859 M337.808,11.717c-2.475,0-5.34-1.524-5.34-5.529c0-4.285,3.436-5.616,6.003-5.616
			c3.623,0,6.575,2.573,6.575,7.047c0,4.954-3.717,10.86-10.287,10.86c-0.668,0-0.955-0.479-0.955-0.856
			c0-0.48,0.287-0.768,0.671-0.861c4.476-0.856,6.194-3.716,6.289-5.621C340.376,11.435,339.045,11.717,337.808,11.717
			 M349.238,102.766c0,2.766-1.049,6.477-3.43,10.474c-4.479,7.241-8.002,8.669-11.048,8.669c-2.573,0-3.718-2.093-3.718-5.142
			c0-2.667,1.145-6.097,3.146-9.242c3.05-4.854,7.335-8.854,11.144-8.854C347.907,98.674,349.238,99.911,349.238,102.766
			 M328.383,159.342c-10.573,0-13.716-6.096-13.716-9.143c0-2.856,1.144-4.667,4.001-6.671c2.001-1.424,4.951-2.854,7.237-3.711
			c2.572,1.144,6.479,3.43,7.716,4.573c5.713,4,6.854,6.285,6.854,8.288C340.476,158.104,332.382,159.342,328.383,159.342
			 M361.618,101.054c1.143,0,2.191-0.57,2.191-2.574c0-1.713-1.617-2.288-3.143-2.288c-1.716,0-3.904,0.475-6.195,2
			c-0.567,0.48-1.999,1.143-2.854,0.569c-1.811-1.236-3.432-2.094-7.715-2.094c-4.288,0-10.568,2.574-14.571,8.002
			c-2.855,3.998-3.43,6.857-3.43,9.717c0,2.855,1.146,4.953,1.998,6.092c0.188,0.287,0.281,0.475,0.281,0.767
			c0,0.663-0.851,1.138-2.279,1.524c-2.568,0.856-6.859,3.33-6.859,7.714c0,2.855,2.281,5.616,4.858,7.329
			c0,0-5.237,1.43-9.43,3.715c-3.242,1.811-6.859,4.571-6.859,8.57c0,4.573,3.911,12.003,20.001,12.003
			c9.43,0,15.334-3.424,17.626-6.002c1.707-2,1.994-4.281,1.994-5.71c0-5.147-5.713-10.004-11.993-13.429
			c-4.005-2.292-9.906-5.054-9.906-9.149c0-1.045,0.283-2.188,1.426-2.855c0.768-0.573,2-0.855,3.336-0.855
			c1.812,0,4.097,0.574,5.714,0.574c5.145,0,12.1-1.717,16.382-10.861c1.141-2.573,1.621-5.146,1.621-7.333
			c0-2.859-0.48-3.527-0.48-4.854c0-1.143,1.146-1.811,3.337-1.811C359.809,99.817,359.809,101.054,361.618,101.054 M302.76,114.103
			c5.906-1.905,11.333-5.047,11.333-10.286c0-2.762-1.331-3.905-4-3.905c-3.335,0-6.57,2.474-8.571,4.473
			c-3.331,3.236-6.573,7.146-9.332,12.098C294.378,116.388,298.759,115.338,302.76,114.103 M308.476,131.816
			c-4.004,5.239-10.285,10.098-18.096,10.098c-6.006,0-9.616-4.29-9.616-9.811c0-17.052,18.855-35.052,31.424-35.052
			c4.285,0,7.432,1.622,7.432,6.19c0,6.67-5.811,10.291-16.288,13.435c-2.955,0.855-9.433,2.281-12.574,2.954
			c-1.424,2.281-3.235,6.853-3.235,10.469c0,4.86,2.381,7.716,6.857,7.716c5.145,0,10-3.999,12.667-7.141
			C307.901,129.816,309.233,130.959,308.476,131.816 M280.663,84.196c0,0.282-0.095,0.856-0.376,1.426
			c-7.725,16.763-15.339,33.433-22.768,50.193c-0.381,0.861-1.142,2.573-1.142,3.716c0,1.43,1.043,2.666,2.572,2.666
			c0.757,0,1.806-0.282,2.382-0.569c4.191-1.717,8.57-6.288,11.141-10.193c0.574-0.856-0.475-1.618-1.143-1.044
			c-1.047,0.952-4.002,4.95-7.145,6.666c-0.569,0.283-1.143,0.283-0.764-0.856l23.812-52.86c0.377-0.955,0.57-1.525,0.57-2.098
			c0-0.665-0.479-0.956-1.145-0.956c-1.141,0-2.479,0.291-4.194,0.48c-1.425,0.094-3.899,0.286-6.088,0.475
			c-0.574,0-0.86,0.573-0.86,0.954c0,0.57,0.475,0.853,1.043,0.853c1.148,0,2.287,0,3.53,0.292
			C280.568,83.528,280.663,83.814,280.663,84.196 M322.474,47.5c0-5,4.285-6.31,8.004-6.598c1.427-0.188,1.707-2.402-0.29-2.402
			h-28.863c-1.994,0-2.053,2.61-0.06,2.799c5.723,0.38,10.235,1.466,10.235,6.989v10.381c0,2.286-1.087,3.903-2.329,4.858
			c-5.047,4.192-11.397,4.478-15.11,4.478c-18.285,0-26.457-15.808-26.457-31.523c0-12.766,6.478-32.861,27.623-32.861
			c18.955,0,25.61,12.287,27.902,16.953c0.761,1.431,2.371,1.144,2.371,0V5.433c0-1.431-1.9-1.718-2.367,0
			c-0.389,1.711-1.427,2.854-2.854,2.854c-1.145,0-2.43-0.856-2.994-1.242c-5.718-3.613-11.128-6.473-21.979-6.473
			c-17.525,0-39.137,8.76-39.137,35.435c0,26.851,20.309,35.141,38.023,35.141c17.435,0,26.309-8.857,28.309-10V47.5H322.474z
			 M259.421,84.196c0,0.282-0.094,0.856-0.376,1.426c-7.716,16.763-15.334,33.433-22.764,50.193
			c-0.387,0.861-1.146,2.573-1.146,3.716c0,1.43,1.049,2.666,2.573,2.666c0.761,0,1.812-0.282,2.38-0.569
			c4.189-1.717,8.574-6.288,11.143-10.193c0.574-0.856-0.476-1.618-1.143-1.044c-1.044,0.952-3.999,4.95-7.143,6.666
			c-0.574,0.283-1.148,0.283-0.764-0.856l23.811-52.86c0.382-0.955,0.574-1.525,0.574-2.098c0-0.665-0.479-0.956-1.148-0.956
			c-1.145,0-2.475,0.291-4.186,0.48c-1.432,0.094-3.905,0.286-6.102,0.475c-0.57,0-0.855,0.573-0.855,0.954
			c0,0.57,0.479,0.853,1.048,0.853c1.144,0,2.286,0,3.522,0.292C259.327,83.528,259.421,83.814,259.421,84.196 M225.518,98.481
			c-9.035,0-21.984,21.431-21.984,34.479c0,3.429,1.523,6.001,5.148,6.001c8.852,0,22.077-21.905,22.077-33.429
			C230.756,102.102,229.807,98.481,225.518,98.481 M223.611,95.813c9.144,0,10.861,8.002,10.861,15.428
			c0,11.811-10.861,30.673-23.984,30.673c-8.287,0-11.43-6.669-11.43-13.528C199.059,111.91,210.771,95.813,223.611,95.813
			 M177.723,0.5c-2,0-2,2.183-0.856,2.469c2.191,0.475,6.764,0.946,6.764,6.944c0.094,14.19,0.094,32.809-0.475,47.957
			c-0.1,5.427-1.722,9.979-6.384,10.551c-1.713,0.095-1.713,2.079-0.574,2.079h20.569c1.147,0,1.524-1.769,0.099-2.057
			c-3.138-0.573-8.288-0.555-8.668-10.548c-0.475-9.719-0.758-46.649-0.758-46.649L239.047,68.5h4.284c0,0,0-53.536,0.289-57.632
			c0.28-4.759,1.905-7.42,7.042-7.801c2.578-0.189,2.098-2.567,0.385-2.567h-20.955c-2.476,0-1.906,2.469-0.762,2.469
			c2.287,0.287,9.43,1.227,9.717,8.087c0.282,10.004,0.758,41.014,0.758,41.014L193.916,0.5H177.723z M196.202,101.529
			c0.564,0,0.945-0.287,1.138-0.856l4.578-14.572c0.283-0.855-0.098-1.43-0.861-1.43c-0.287,0-0.663,0.092-0.954,0.381
			c-0.857,0.855-1.902,1.717-2.762,1.717c-0.475,0-0.856-0.288-1.331-0.668c-4.093-5.048-10.663-5.814-13.811-5.814
			c-14.571,0-27.144,9.53-34.572,21.243c-4.478,6.952-6.764,14.571-6.764,22.098c0,11.999,8.286,18.762,19.144,18.762
			c4.859,0,8.57-0.573,15.142-3.334c1.435-0.575,3.053-1.242,4.002-1.242c1.619,0,1.717,2.384,1.906,4.576
			c0,0.857,0.568,1.138,1.143,1.138c0.381,0,0.856-0.188,1.144-0.851l6.096-17.432c0.475-1.43-0.095-1.999-0.669-1.999
			c-0.855,0-1.331,0.381-1.999,1.519c-2.767,4.285-4.672,7.051-14.286,11.722c-4.001,1.9-8.668,3.043-12.383,3.043
			c-8.096,0-11.238-6.191-11.238-13.999c0-10.287,4.861-21.049,12.287-30c4.765-5.907,12.003-12.573,20.474-12.573
			c8.101,0,14.103,5.999,13.241,17.146C194.773,101.054,195.437,101.529,196.202,101.529 M159.5,59.5V11.143
			c0-5.997,4.205-7.888,8.777-8.175c1.716,0,1.924-2.468-0.362-2.468h-28.574c-2,0-2.273,2.37-0.278,2.468
			c4.29,0.475,9.438,2.746,9.438,8.175v48.48c0,5.429-2,8.856-8,8.856c-3,0-2,2.021,0,2.021h27.699c1.431,0,1.89-2.057-0.49-2.057
			c-6.001,0-8.208-3.888-8.208-8.742 M91.721,11.336c0-2.191-0.856-4.291-3.712-5.334c-2.386-0.855-4.578-1.144-6.958-1.524
			c-3.428-0.57-2.761-3.905,0.287-3.905c2,0,11.523,0.762,22.855,0.762c6.576,0,16.002-0.287,20.574-0.568
			c2.856-0.194,3.144,2.854,1.144,3.424c-1.999,0.573-11.43,2.855-28.289,18.288C80.196,38.48,57.723,62.196,57.723,62.196
			s50.47,60.189,59.33,67.334c9.144,7.432,15.433,7.985,22.288,8.559c1.716,0.094,2.286,3.411,0,3.411H99.913
			c0,0-48.861-59.032-56.862-64.464c-1.424-0.855-4.859-1.993-5.142,2.005c-0.287,3.716-0.573,35.056,0.283,41.909
			c0.86,6.858,3.717,16.86,20.005,16.86c2,0,3.142,3.815,0.288,3.717c-9.625-0.475-16.858-0.475-28.768-0.475
			c-10.287,0-24.666,0.476-26.665,0.476c-3.425,0-3.425-3.141-0.288-3.424c4.572-0.291,15.434-0.86,16.096-18.288
			c0.763-18.002,0.288-93.815,0-102.099C18.767,12.002,13.907,4.106,1.339,4.106c-2.004,0-1.712-3.606,0.569-3.606H55.62
			c2.005,0,3.148,3.513-0.283,3.8C51.909,4.586,38.86,5.058,38.479,22.484c-0.474,17.433-0.474,44.522-0.474,45.665
			c0,1.431,0.569,2.882,2.573,1.452c6.191-4.191,24.569-22.182,38.289-37.609c5.423-6.095,9.145-11.424,11.713-16.377
			C91.146,14.565,91.721,13.048,91.721,11.336"/>
		<path fill="#FFFFFF" d="M333.901,165.5c-1.14,0-1.432,1.719,0.099,1.719c1.714,0,5.337,0.333,5.337,5.568l-0.287,42.219
			c0,4.572-1.625,8.486-5.911,8.486c-1.425,0-1.425,2.008-0.28,2.008h17.622c1.136,0,1.136-2.044-0.195-2.044
			c-2.573,0-7.051-1.218-7.146-8.452l-0.382-42.948c0,0,45.146,53.444,45.434,53.444h3.049l0.463-51.005
			c0-5.046,1.797-7.848,7.797-7.848c1,0,1-1.147,0-1.147h-20c-1,0-1,1.147,0,1.147c2,0,8.062,0.382,8.154,6.953l0.461,37.332
			L349.332,165.5H333.901L333.901,165.5z M279.43,194.645c0-15.429,7.146-27.33,20.285-27.33c11.713,0,20.569,11.333,20.569,27.33
			c0,19.716-8,28.38-20.569,28.38C287.425,223.025,279.43,211.219,279.43,194.645 M299.715,225.796
			c17.62,0,30.282-12.291,30.282-31.151c0-16.572-12.286-30-30.282-30c-17.531,0-30.099,13.715-30.099,30
			C269.616,212.357,281.52,225.796,299.715,225.796 M215.5,173.024c0-5.429,3.012-5.711,10.436-5.711
			c12.854,0,25.744,6.45,25.744,26.831c0,19.812-10.918,28.356-25.303,28.356h-3.049c-3.803,0-7.828-0.906-7.828-8.428V173.024z
			 M200.391,164.644c-1.999,0-1.373,2.29-0.229,2.29c2.28,0,6.338,1.143,6.338,5.711v42.958c0,4.565-1.291,7.562-6.719,7.562
			c-1.336,0-1.582,2.334-0.34,2.334h28.657c12.566,0,33.424-6.145,33.424-30.999c0-25.142-17.146-29.788-33.715-29.788
			L200.391,164.644L200.391,164.644z M129.437,165.5c-1.143,0-1.432,1.719,0.095,1.719c1.717,0,5.333,0.333,5.333,5.568
			l-0.287,42.219c0,4.572-1.618,8.486-5.904,8.486c-1.431,0-1.431,2.008-0.288,2.008h17.622c1.143,0,1.143-2.044-0.192-2.044
			c-2.57,0-7.043-1.218-7.143-8.452l-0.38-42.948c0,0,45.146,53.444,45.428,53.444h3.054l0.193-51.005
			c0-5.046,2.532-7.848,7.532-7.848c1,0,1-1.147,0-1.147h-20c-1,0-1,1.147,0,1.147c2,0,8.326,0.382,8.421,6.953l0.595,37.332
			l-38.65-45.432H129.437L129.437,165.5z M74.576,194.645c0-15.429,7.146-27.33,20.287-27.33c11.717,0,20.571,11.333,20.571,27.33
			c0,19.716-7.997,28.38-20.571,28.38C82.579,223.025,74.576,211.219,74.576,194.645 M94.863,225.796
			c17.622,0,30.287-12.291,30.287-31.151c0-16.572-12.285-30-30.287-30c-17.525,0-30.099,13.715-30.099,30
			C64.765,212.357,76.674,225.796,94.863,225.796 M390.5,258.5H7.5v8h383V258.5L390.5,258.5z M390.5,246.5H7.5v4h383V246.5
			L390.5,246.5z M6.5,165.5h24.361c1.236,0,1.51,1.767-0.01,1.767c-2.384,0-7.351,0.905-7.351,6.042v42.671
			c0,4.857,2.487,6.57,13.062,6.57c10.191,0,19.866-1.236,24.625-14.758c0.38-1.143,2.217-0.959,1.931,0.762L60.005,225.5H7.146
			c-1.811,0-1.419-2.279-0.276-2.279c3.429,0,7.63-1.72,7.63-7.904v-40.858c0-5.237-3-7.428-8-7.428
			C4.5,167.029,4.5,165.5,6.5,165.5"/>
	</g>
</g>
</svg>
