<?xml version="1.0" encoding="utf-8"?>
<!-- Generator: Adobe Illustrator 15.1.0, SVG Export Plug-In . SVG Version: 6.00 Build 0)  -->
<!DOCTYPE svg PUBLIC "-//W3C//DTD SVG 1.1//EN" "http://www.w3.org/Graphics/SVG/1.1/DTD/svg11.dtd">
<svg version="1.1" id="Layer_1" xmlns="http://www.w3.org/2000/svg" xmlns:xlink="http://www.w3.org/1999/xlink" x="0px" y="0px"
	 width="400px" height="400px" viewBox="0 0 400 400" enable-background="new 0 0 400 400" xml:space="preserve">
<g>
	<path d="M357.805,131.685c5.098-1.672,9.857-4.429,9.857-9.027c0-2.423-1.082-3.426-3.51-3.426c-2.84,0-5.767,2.171-7.521,3.925
		c-2.84,2.84-5.771,6.271-8.106,10.617C350.366,133.691,354.297,132.77,357.805,131.685 M362.82,147.231
		c-3.514,4.598-9.027,8.862-15.967,8.862c-5.269,0-8.359-3.765-8.359-8.61c0-14.965,16.55-30.763,27.583-30.763
		c3.762,0,6.519,1.424,6.519,5.433c0,5.854-5.181,9.031-14.291,11.79c-2.679,0.751-8.271,2.002-11.035,2.592
		c-1.25,2.002-2.926,6.015-2.926,9.188c0,4.265,2.176,6.771,6.022,6.771c4.513,0,8.772-3.509,11.194-6.267
		C362.32,145.476,363.402,146.479,362.82,147.231 M367.168,44.588c0.411,0,0.916-0.252,0.751-0.834l-1.59-11.203
		c-0.165-0.752-0.5-1.003-0.921-1.003c-0.252,0-0.586,0.169-0.834,0.673c-0.503,0.999-1.26,1.837-2.676,1.837
		c-2.506,0-4.85-1.837-10.781-1.837c-7.776,0-18.057,3.339-18.057,14.625c0,11.282,9.028,14.964,16.801,17.805
		c8.19,3.009,14.713,5.263,14.713,13.792c0,9.526-6.684,12.618-13.04,12.618c-7.021,0-15.294-3.344-18.222-14.46
		c-0.252-0.917-0.586-1.173-1.25-1.173c-0.59,0-1.09,0.422-1.09,1.424v14.292c0,0.839,0.5,1.256,1.002,1.256
		c0.334,0,0.752-0.248,1-0.67c0.586-0.834,1.254-1.589,2.849-1.589c3.17,0,6.936,3.848,16.045,3.848
		c8.021,0,21.565-2.511,21.565-18.305c0-6.27-2.589-14.295-17.809-18.559c-10.777-3.01-14.205-7.521-14.205-13.041
		c0-4.763,2.846-9.358,10.613-9.358c3.848,0,10.113,1.086,14.295,9.276C366.58,44.501,366.828,44.588,367.168,44.588
		 M320.941,41.831c-2.172,0-4.686-1.338-4.686-4.852c0-3.76,3.014-4.929,5.268-4.929c3.179,0,5.771,2.258,5.771,6.185
		c0,4.347-3.262,9.531-9.028,9.531c-0.586,0-0.838-0.421-0.838-0.752c0-0.421,0.252-0.673,0.588-0.755
		c3.928-0.751,5.436-3.261,5.519-4.933C323.195,41.583,322.027,41.831,320.941,41.831 M330.973,121.736
		c0,2.427-0.92,5.684-3.009,9.192c-3.931,6.354-7.022,7.608-9.696,7.608c-2.259,0-3.262-1.837-3.262-4.512
		c0-2.341,1.003-5.351,2.762-8.111c2.676-4.26,6.436-7.77,9.779-7.77C329.805,118.145,330.973,119.231,330.973,121.736
		 M312.67,171.388c-9.279,0-12.037-5.35-12.037-8.024c0-2.506,1.003-4.096,3.512-5.854c1.756-1.25,4.344-2.505,6.351-3.257
		c2.258,1.004,5.685,3.01,6.772,4.013c5.013,3.51,6.016,5.516,6.016,7.273C323.282,170.302,316.179,171.388,312.67,171.388
		 M341.838,120.234c1.003,0,1.924-0.5,1.924-2.259c0-1.503-1.42-2.007-2.758-2.007c-1.506,0-3.427,0.417-5.438,1.755
		c-0.498,0.421-1.754,1.003-2.506,0.499c-1.588-1.085-3.009-1.837-6.77-1.837c-3.762,0-9.275,2.258-12.788,7.022
		c-2.506,3.509-3.01,6.019-3.01,8.528c0,2.506,1.007,4.347,1.754,5.346c0.166,0.252,0.247,0.417,0.247,0.673
		c0,0.582-0.746,0.999-2.001,1.338c-2.254,0.751-6.019,2.922-6.019,6.77c0,2.506,2.002,4.929,4.264,6.432
		c0,0-4.596,1.255-8.276,3.261c-2.845,1.589-6.019,4.012-6.019,7.521c0,4.013,3.431,10.534,17.552,10.534
		c8.276,0,13.457-3.005,15.469-5.267c1.498-1.755,1.75-3.757,1.75-5.012c0-4.517-5.013-8.78-10.526-11.785
		c-3.514-2.011-8.693-4.435-8.693-8.029c0-0.917,0.248-1.92,1.251-2.506c0.673-0.503,1.755-0.751,2.928-0.751
		c1.589,0,3.595,0.504,5.015,0.504c4.513,0,10.617-1.507,14.375-9.532c1.002-2.258,1.424-4.516,1.424-6.436
		c0-2.509-0.422-3.095-0.422-4.26c0-1.003,1.004-1.589,2.927-1.589C340.249,119.148,340.249,120.234,341.838,120.234
		 M290.184,131.685c5.182-1.672,9.945-4.429,9.945-9.027c0-2.423-1.168-3.426-3.51-3.426c-2.928,0-5.768,2.171-7.524,3.925
		c-2.923,2.84-5.768,6.271-8.189,10.617C282.827,133.691,286.672,132.77,290.184,131.685 M295.199,147.231
		c-3.514,4.598-9.027,8.862-15.881,8.862c-5.271,0-8.44-3.765-8.44-8.61c0-14.965,16.549-30.763,27.579-30.763
		c3.761,0,6.521,1.424,6.521,5.433c0,5.854-5.099,9.031-14.295,11.79c-2.593,0.751-8.277,2.002-11.035,2.592
		c-1.25,2.002-2.84,6.015-2.84,9.188c0,4.265,2.09,6.771,6.019,6.771c4.514,0,8.776-3.509,11.116-6.267
		C294.696,145.476,295.864,146.479,295.199,147.231 M270.791,105.439c0,0.247-0.083,0.751-0.33,1.251
		c-6.779,14.712-13.462,29.341-19.98,44.05c-0.334,0.755-1.002,2.258-1.002,3.261c0,1.255,0.916,2.34,2.258,2.34
		c0.664,0,1.584-0.247,2.089-0.499c3.679-1.507,7.522-5.519,9.778-8.946c0.504-0.751-0.416-1.42-1.002-0.916
		c-0.92,0.835-3.513,4.344-6.271,5.85c-0.5,0.248-1.003,0.248-0.669-0.751l20.899-46.391c0.33-0.838,0.5-1.338,0.5-1.841
		c0-0.583-0.42-0.838-1.004-0.838c-1.002,0-2.175,0.255-3.682,0.421c-1.25,0.082-3.423,0.251-5.342,0.417
		c-0.504,0-0.756,0.503-0.756,0.837c0,0.5,0.416,0.748,0.916,0.748c1.008,0,2.007,0,3.098,0.256
		C270.708,104.853,270.791,105.104,270.791,105.439 M307.484,73.426c0-5.098,3.761-5.601,7.025-5.853
		c1.251-0.165,1.498-2.171-0.256-2.171h-25.33c-1.75,0-1.75,2.257,0,2.423c5.02,0.334,9.033,1.254,9.033,6.101v9.11
		c0,2.006-1.005,3.426-2.094,4.264c-4.43,3.679-10.03,3.93-13.288,3.93c-16.046,0-23.231-13.873-23.231-27.665
		c0-11.203,5.676-28.839,24.235-28.839c16.636,0,22.649,10.783,24.66,14.878c0.668,1.256,2.254,1.004,2.254,0V36.316
		c0-1.256-1.843-1.508-2.254,0c-0.339,1.502-1.339,2.505-2.593,2.505c-1.004,0-2.176-0.751-2.672-1.09
		c-5.019-3.171-9.787-5.681-19.311-5.681c-15.381,0-34.357,7.688-34.357,31.098c0,23.565,17.805,30.84,33.351,30.84
		c15.3,0,23.323-7.773,24.825-8.776V73.426H307.484z M252.148,105.439c0,0.247-0.082,0.751-0.33,1.251
		c-6.771,14.712-13.457,29.341-19.977,44.05c-0.338,0.755-1.007,2.258-1.007,3.261c0,1.255,0.921,2.34,2.259,2.34
		c0.668,0,1.59-0.247,2.088-0.499c3.678-1.507,7.525-5.519,9.779-8.946c0.504-0.751-0.417-1.42-1.003-0.916
		c-0.916,0.835-3.509,4.344-6.267,5.85c-0.504,0.248-1.008,0.248-0.67-0.751l20.896-46.391c0.335-0.838,0.504-1.338,0.504-1.841
		c0-0.583-0.421-0.838-1.008-0.838c-1.004,0-2.172,0.255-3.674,0.421c-1.256,0.082-3.428,0.251-5.354,0.417
		c-0.5,0-0.752,0.503-0.752,0.837c0,0.5,0.421,0.748,0.921,0.748c1.004,0,2.006,0,3.092,0.256
		C252.066,104.853,252.148,105.104,252.148,105.439 M222.395,117.976c-7.93,0-19.295,18.808-19.295,30.259
		c0,3.009,1.338,5.267,4.518,5.267c7.769,0,19.376-19.224,19.376-29.338C226.992,121.154,226.158,117.976,222.395,117.976
		 M220.723,115.635c8.023,0,9.531,7.022,9.531,13.54c0,10.365-9.531,26.919-21.049,26.919c-7.273,0-10.031-5.854-10.031-11.873
		C199.174,129.761,209.452,115.635,220.723,115.635 M180.449,32.299c-1.755,0-1.755,1.759-0.751,2.01
		c1.923,0.417,5.937,0.752,5.937,6.016c0.082,12.454,0.082,28.755-0.417,42.048c-0.088,4.763-1.512,8.771-5.603,9.274
		c-1.503,0.083-1.503,1.838-0.503,1.838h18.051c1.007,0,1.338-1.585,0.087-1.838c-2.754-0.503-7.273-0.503-7.607-9.274
		c-0.417-8.529-0.665-40.789-0.665-40.789l45.29,50.399h3.76c0,0,0-47.143,0.253-50.738c0.247-4.177,1.672-6.436,6.18-6.77
		c2.263-0.166,1.842-2.176,0.339-2.176h-18.391c-2.172,0-1.672,2.01-0.669,2.01c2.007,0.252,8.276,0.999,8.528,7.019
		c0.248,8.78,0.664,36.112,0.664,36.112l-40.272-45.141H180.449z M196.667,120.651c0.495,0,0.829-0.252,0.999-0.752l4.018-12.788
		c0.248-0.751-0.086-1.255-0.756-1.255c-0.252,0-0.583,0.081-0.838,0.334c-0.752,0.751-1.669,1.507-2.424,1.507
		c-0.417,0-0.752-0.252-1.168-0.586c-3.592-4.431-9.358-5.103-12.12-5.103c-12.788,0-23.822,8.363-30.341,18.643
		c-3.93,6.101-5.936,12.788-5.936,19.393c0,10.53,7.272,16.466,16.801,16.466c4.264,0,7.521-0.503,13.288-2.926
		c1.259-0.504,2.679-1.09,3.512-1.09c1.421,0,1.507,2.093,1.673,4.016c0,0.752,0.499,0.999,1.003,0.999
		c0.334,0,0.751-0.165,1.004-0.747l5.35-15.298c0.417-1.255-0.083-1.754-0.587-1.754c-0.751,0-1.168,0.334-1.754,1.333
		c-2.428,3.76-4.1,6.188-12.537,10.287c-3.512,1.668-7.608,2.671-10.868,2.671c-7.105,0-9.863-5.433-9.863-12.285
		c0-9.028,4.266-18.473,10.783-26.329c4.182-5.184,10.535-11.034,17.969-11.034c7.109,0,12.376,5.264,11.62,15.048
		C195.413,120.234,195.995,120.651,196.667,120.651 M164.317,83.874V41.327c0-5.263,3.76-6.767,7.773-7.019
		c1.506,0,1.758-2.01-0.248-2.01h-25.077c-1.755,0-2.003,1.924-0.252,2.01c3.765,0.417,8.275,2.254,8.275,7.019v42.547
		c0,4.764-1.754,7.772-7.273,7.772c-2.171,0-1.671,1.838,0,1.838h24.575c1.255,0,1.589-1.838-0.5-1.838
		C166.323,91.646,164.317,88.134,164.317,83.874 M104.973,41.496c0-1.923-0.751-3.765-3.257-4.681
		c-2.094-0.751-4.018-1.004-6.106-1.338c-3.009-0.5-2.423-3.427,0.252-3.427c1.754,0,10.113,0.669,20.058,0.669
		c5.771,0,14.044-0.252,18.056-0.499c2.507-0.17,2.759,2.505,1.004,3.005c-1.754,0.503-10.031,2.506-24.826,16.05
		C94.859,65.319,75.136,86.132,75.136,86.132s44.293,52.822,52.069,59.093c8.025,6.522,13.544,7.021,19.56,7.525
		c1.506,0.082,2.006,3.005,0,3.005h-34.603c0,0-42.881-51.819-49.902-56.587c-1.25-0.751-4.265-1.754-4.513,1.755
		c-0.252,3.261-0.503,30.762,0.248,36.776c0.755,6.019,3.262,14.795,17.557,14.795c1.755,0,2.757,3.348,0.252,3.261
		c-8.446-0.417-14.794-0.417-25.247-0.417c-9.027,0-21.647,0.417-23.401,0.417c-3.006,0-3.006-2.757-0.252-3.005
		c4.012-0.256,13.544-0.755,14.126-16.05c0.669-15.798,0.252-82.333,0-89.603c-0.082-5.016-4.347-11.79-15.377-11.79
		c-1.759,0-1.503-3.009,0.499-3.009H73.29c1.76,0,2.763,2.927-0.248,3.179c-3.009,0.251-14.46,0.587-14.795,15.881
		c-0.416,15.298-0.416,39.033-0.416,40.036c0,1.256,0.499,2.511,2.258,1.256c5.433-3.679,21.562-19.477,33.603-33.016
		c4.759-5.35,8.025-10.031,10.279-14.378C104.469,44.336,104.973,42.999,104.973,41.496"/>
	<path d="M317.514,176.293c-1,0-1.256,1.758,0.086,1.758c1.504,0,4.683,0.417,4.683,5.012l-0.252,37.114
		c0,4.013-1.425,7.356-5.187,7.356c-1.25,0-1.25,1.672-0.246,1.672h15.465c0.996,0,0.996-1.672-0.172-1.672
		c-2.258,0-6.188-1.008-6.27-7.356l-0.335-37.783c0,0,39.621,46.556,39.872,46.812h2.675l0.252-44.641
		c0-4.429,1.92-6.766,6.688-6.766c0.998,0,0.998-1.506,0-1.506h-17.307c-1.007,0-1.007,1.506,0,1.506
		c1.76,0,7.108,0.335,7.188,6.102l0.421,32.513l-34.02-40.12L317.514,176.293L317.514,176.293z M269.707,202.369
		c0-13.54,6.271-23.984,17.804-23.984c10.279,0,18.052,9.945,18.052,23.984c0,17.305-7.021,24.908-18.052,24.908
		C276.725,227.277,269.707,216.916,269.707,202.369 M287.511,229.709c15.464,0,26.576-10.787,26.576-27.34
		c0-14.543-10.783-26.328-26.576-26.328c-15.386,0-26.415,12.037-26.415,26.328C261.096,217.915,271.543,229.709,287.511,229.709
		 M213.38,183.396c0-4.764,2.754-5.012,9.269-5.012c11.281,0,22.649,5.598,22.649,23.485c0,17.387-9.526,24.824-22.149,24.824
		h-2.676c-3.336,0-7.093-0.672-7.093-7.272V183.396z M200.343,176.041c-1.754,0-1.42,2.01-0.417,2.01
		c2.002,0,5.348,1.003,5.348,5.012v37.701c0,4.008-0.918,6.516-5.682,6.516c-1.173,0-1.173,1.927-0.083,1.927h25.149
		c11.029,0,29.334-5.269,29.334-27.083c0-22.065-15.047-26.081-29.59-26.081L200.343,176.041L200.343,176.041z M138.073,176.293
		c-1.003,0-1.256,1.758,0.083,1.758c1.507,0,4.681,0.417,4.681,5.012l-0.252,37.114c0,4.013-1.42,7.356-5.181,7.356
		c-1.256,0-1.256,1.672-0.253,1.672h15.465c1.003,0,1.003-1.672-0.169-1.672c-2.255,0-6.181-1.008-6.268-7.356l-0.334-37.783
		c0,0,39.621,46.556,39.868,46.812h2.68l0.247-44.641c0-4.429,1.924-6.766,6.688-6.766c1.002,0,1.002-1.506,0-1.506h-17.301
		c-1.004,0-1.004,1.506,0,1.506c1.754,0,7.104,0.335,7.187,6.102l0.421,32.513l-34.022-40.12L138.073,176.293L138.073,176.293z
		 M89.927,202.369c0-13.54,6.271-23.984,17.804-23.984c10.283,0,18.053,9.945,18.053,23.984c0,17.305-7.018,24.908-18.053,24.908
		C96.95,227.277,89.927,216.916,89.927,202.369 M107.731,229.709c15.465,0,26.58-10.787,26.58-27.34
		c0-14.543-10.781-26.328-26.58-26.328c-15.38,0-26.415,12.037-26.415,26.328C81.316,217.915,91.768,229.709,107.731,229.709
		 M367.495,258.209H30.749v7.271h336.747L367.495,258.209L367.495,258.209z M367.495,248.008H30.749v3.174h336.747L367.495,248.008
		L367.495,248.008z M29.998,176.375h21.564c1.085,0,1.42,1.759,0.086,1.759c-2.093,0-6.356,1.003-6.356,5.511v37.449
		c0,4.264,2.089,5.768,11.369,5.768c8.944,0,17.387-1.086,21.564-12.953c0.334-1.003,1.923-0.922,1.671,0.586l-2.757,14.791h-46.39
		c-1.589,0-1.255-1.92-0.251-1.92c3.009,0,6.687-1.426,6.687-6.854v-35.859c0-4.596-2.671-6.519-7.187-6.519
		C28.83,178.134,28.743,176.375,29.998,176.375"/>
</g>
<g>
	<path d="M40.932,361.376l-4.046-10.811v10.811h-5.779v-26.109h5.779v9.587l3.91-9.587h5.881l-5.031,11.593l5.813,14.517H40.932z"/>
	<path d="M48.583,340.162v-4.896h5.371v4.896H48.583z M48.583,361.376v-19.514h5.371v19.514H48.583z"/>
	<path d="M65.242,361.376v-13.803c0-0.884-0.34-1.428-1.258-1.428c-1.258,0-2.074,1.598-2.074,4.113v11.117h-5.372v-19.514h5.337
		v3.161c0.612-2.21,2.176-3.535,4.454-3.535c2.209,0,4.284,1.428,4.284,4.589v15.299H65.242z"/>
	<path d="M79.114,367.768c-3.739,0-7.241-1.021-7.241-4.216c0-1.224,0.612-1.87,1.802-2.448l0.884-0.441l-0.646-0.374
		c-1.326-0.782-1.734-1.802-1.734-3.229c0-1.768,1.19-2.89,2.346-3.672l0.612-0.408l-0.578-0.51
		c-1.054-0.918-1.904-2.787-1.904-4.487c0-4.216,2.244-6.731,6.561-6.731c1.326,0,2.006,0.136,2.72,0.442l0.51-3.536h4.352
		l-2.992,4.487c1.292,1.088,2.379,2.754,2.379,5.338c0,3.705-2.312,6.119-6.085,6.119c-0.815,0-1.903-0.034-2.549-0.204
		c-0.544,0.34-1.156,0.544-1.156,1.258c0,0.952,0.884,0.952,1.666,0.952l3.229-0.034c3.706-0.034,5.916,1.836,5.916,5.644
		C87.205,365.863,84.859,367.768,79.114,367.768z M79.352,361.036h-2.38c-0.476,0.408-0.952,1.088-0.952,1.768
		c0,1.19,1.359,1.938,3.162,1.938c2.822,0,3.229-0.68,3.229-2.005C82.412,361.682,81.596,361.036,79.352,361.036z M79.318,344.14
		c-1.19,0-1.768,0.51-1.768,3.399s0.578,3.4,1.768,3.4s1.802-0.511,1.802-3.4S80.508,344.14,79.318,344.14z"/>
	<path d="M90.028,346.281c-0.646,0.272-1.224,0.408-2.006,0.51l-0.408-1.869c0.748-0.238,1.394-0.578,1.904-1.021
		c0.918-0.781,0.986-1.768,0.884-2.923h-2.006v-5.712h4.759v5.712C93.156,343.46,92.374,345.296,90.028,346.281z"/>
	<path d="M101.724,361.716c-4.793,0-6.799-1.733-6.799-4.93c0-0.85,0.17-1.699,0.408-2.413l4.113,0.271
		c-0.102,0.477-0.136,0.85-0.136,1.258c0,1.428,0.612,2.244,2.04,2.244c1.632,0,1.972-1.292,1.972-2.04
		c0-1.02-0.544-1.598-2.006-2.277l-2.108-0.986c-1.7-0.782-4.216-2.244-4.216-5.848c0-3.705,3.162-5.745,6.868-5.745
		c3.569,0,6.357,1.496,6.357,4.827c0,0.714-0.102,1.225-0.306,1.769l-4.045-0.068c0.136-0.408,0.17-0.714,0.17-1.359
		c0-1.088-0.714-1.666-1.836-1.666c-1.156,0-1.7,0.714-1.7,1.733c0,1.122,0.816,1.632,2.142,2.21l2.618,1.122
		c2.21,0.952,3.91,2.277,3.91,5.677C109.169,359.608,107.231,361.716,101.724,361.716z"/>
	<path d="M127.699,361.376h-7.989v-26.109h8.397c4.793,0,7.105,5.678,7.105,14.278C135.212,356.412,133.479,361.376,127.699,361.376
		z M126.611,339.687h-1.258v16.964h1.326c1.87,0,2.754-1.088,2.754-7.717C129.433,341.93,129.059,339.687,126.611,339.687z"/>
	<path d="M137.254,340.162v-4.896h5.371v4.896H137.254z M137.254,361.376v-19.514h5.371v19.514H137.254z"/>
	<path d="M151.227,367.768c-3.739,0-7.241-1.021-7.241-4.216c0-1.224,0.612-1.87,1.802-2.448l0.884-0.441l-0.646-0.374
		c-1.326-0.782-1.734-1.802-1.734-3.229c0-1.768,1.19-2.89,2.346-3.672l0.612-0.408l-0.578-0.51
		c-1.054-0.918-1.904-2.787-1.904-4.487c0-4.216,2.244-6.731,6.561-6.731c1.326,0,2.006,0.136,2.72,0.442l0.51-3.536h4.352
		l-2.992,4.487c1.292,1.088,2.379,2.754,2.379,5.338c0,3.705-2.312,6.119-6.085,6.119c-0.815,0-1.903-0.034-2.549-0.204
		c-0.544,0.34-1.156,0.544-1.156,1.258c0,0.952,0.884,0.952,1.666,0.952l3.229-0.034c3.706-0.034,5.916,1.836,5.916,5.644
		C159.318,365.863,156.973,367.768,151.227,367.768z M151.465,361.036h-2.38c-0.476,0.408-0.952,1.088-0.952,1.768
		c0,1.19,1.359,1.938,3.162,1.938c2.822,0,3.229-0.68,3.229-2.005C154.525,361.682,153.709,361.036,151.465,361.036z
		 M151.431,344.14c-1.19,0-1.768,0.51-1.768,3.399s0.578,3.4,1.768,3.4s1.802-0.511,1.802-3.4S152.621,344.14,151.431,344.14z"/>
	<path d="M160.51,340.162v-4.896h5.371v4.896H160.51z M160.51,361.376v-19.514h5.371v19.514H160.51z"/>
	<path d="M174.584,361.648c-2.788,0-4.624-1.021-4.589-4.08l0.068-12.035h-2.89v-3.671h2.958l0.136-5.372h5.1v5.372h4.08v3.671
		h-4.08v9.859c0,1.53,1.36,1.7,2.414,1.7c0.85,0,1.428-0.17,1.972-0.408v3.842C179.072,361.002,176.658,361.648,174.584,361.648z"/>
	<path d="M193.93,361.784c-2.72,0-3.06-1.054-3.434-2.516l-0.306,0.611c-0.442,0.884-1.768,1.904-3.943,1.904
		c-3.773,0-5.134-2.958-5.134-5.882c0-3.264,1.496-5.167,4.862-5.881l2.04-0.442c2.074-0.442,2.482-0.952,2.482-2.584
		c0-1.836-0.748-2.516-2.142-2.516c-1.292,0-2.312,0.816-2.312,2.006c0,0.68,0.102,1.122,0.272,1.666l-4.487,0.102
		c-0.17-0.781-0.272-1.155-0.272-2.107c0-3.502,3.094-4.896,6.867-4.896c5.439,0,7.377,1.802,7.377,4.386v11.354
		c0,0.714,0.578,1.122,1.258,1.122c0.17,0,0.306-0.034,0.476-0.102v2.753C197.024,361.138,195.29,361.784,193.93,361.784z
		 M190.497,351.687c-0.476,0.272-1.122,0.511-1.632,0.646c-1.938,0.544-2.38,1.224-2.38,2.958c0,1.699,0.408,2.686,1.7,2.686
		c1.258,0,2.312-0.477,2.312-4.317V351.687z"/>
	<path d="M199.167,361.376v-26.109h5.371v26.109H199.167z"/>
	<path d="M215.996,361.376v-26.109h5.779v21.112h6.46v4.997H215.996z"/>
	<path d="M241.971,361.784c-2.72,0-3.06-1.054-3.434-2.516l-0.307,0.611c-0.441,0.884-1.768,1.904-3.943,1.904
		c-3.773,0-5.133-2.958-5.133-5.882c0-3.264,1.496-5.167,4.861-5.881l2.039-0.442c2.074-0.442,2.482-0.952,2.482-2.584
		c0-1.836-0.748-2.516-2.142-2.516c-1.292,0-2.312,0.816-2.312,2.006c0,0.68,0.102,1.122,0.271,1.666l-4.487,0.102
		c-0.17-0.781-0.272-1.155-0.272-2.107c0-3.502,3.094-4.896,6.867-4.896c5.439,0,7.378,1.802,7.378,4.386v11.354
		c0,0.714,0.577,1.122,1.258,1.122c0.17,0,0.306-0.034,0.476-0.102v2.753C245.064,361.138,243.33,361.784,241.971,361.784z
		 M238.537,351.687c-0.477,0.272-1.122,0.511-1.632,0.646c-1.938,0.544-2.38,1.224-2.38,2.958c0,1.699,0.408,2.686,1.7,2.686
		c1.258,0,2.312-0.477,2.312-4.317V351.687z"/>
	<path d="M255.197,361.716c-2.618,0-3.672-1.802-4.387-3.128l-1.155,2.788h-2.448v-26.109h5.372v8.533
		c0.577-1.088,1.428-2.312,3.569-2.312c3.128,0,5.609,2.312,5.609,9.757C261.758,358.826,259.956,361.716,255.197,361.716z
		 M256.013,347.302c-0.272-1.122-0.646-1.429-1.429-1.429c-1.359,0-2.005,1.633-2.005,5.813c0,4.624,0.68,5.882,1.835,5.882
		c1.258,0,1.938-0.952,1.938-5.882C256.353,349.647,256.25,348.355,256.013,347.302z"/>
	<path d="M270.496,361.682c-5.439,0-7.377-2.89-7.377-9.757c0-7.31,2.38-10.675,7.105-10.675c5.644,0,7.275,3.502,7.275,10.233
		C277.5,358.112,276.174,361.682,270.496,361.682z M270.293,345.296c-1.428,0-1.633,1.258-1.633,6.493
		c0,4.997,0.477,5.508,1.633,5.508c1.224,0,1.666-0.545,1.666-5.508C271.959,346.52,271.687,345.296,270.293,345.296z"/>
	<path d="M292.494,350.565l-4.59,0.85c0.103-0.68,0.17-1.496,0.17-2.516c0-1.802-0.51-2.414-1.428-2.414
		c-1.428,0-1.802,2.414-1.802,5.1v9.791h-5.371v-19.514h5.27c0,0,0.067,2.346,0.067,3.535l0.238-0.68
		c0.578-1.666,1.836-3.229,3.672-3.229c2.754,0,4.045,1.598,4.045,5.031C292.766,348.287,292.631,349.647,292.494,350.565z"/>
	<path d="M306.298,361.784c-2.72,0-3.06-1.054-3.434-2.516l-0.306,0.611c-0.442,0.884-1.768,1.904-3.943,1.904
		c-3.774,0-5.134-2.958-5.134-5.882c0-3.264,1.495-5.167,4.861-5.881l2.04-0.442c2.073-0.442,2.481-0.952,2.481-2.584
		c0-1.836-0.748-2.516-2.142-2.516c-1.292,0-2.312,0.816-2.312,2.006c0,0.68,0.103,1.122,0.272,1.666l-4.487,0.102
		c-0.17-0.781-0.271-1.155-0.271-2.107c0-3.502,3.093-4.896,6.867-4.896c5.439,0,7.377,1.802,7.377,4.386v11.354
		c0,0.714,0.578,1.122,1.258,1.122c0.17,0,0.306-0.034,0.476-0.102v2.753C309.392,361.138,307.658,361.784,306.298,361.784z
		 M302.864,351.687c-0.476,0.272-1.122,0.511-1.632,0.646c-1.938,0.544-2.38,1.224-2.38,2.958c0,1.699,0.408,2.686,1.7,2.686
		c1.258,0,2.312-0.477,2.312-4.317V351.687z"/>
	<path d="M317.654,361.648c-2.788,0-4.624-1.021-4.59-4.08l0.068-12.035h-2.891v-3.671h2.958l0.136-5.372h5.1v5.372h4.08v3.671
		h-4.08v9.859c0,1.53,1.36,1.7,2.414,1.7c0.85,0,1.428-0.17,1.972-0.408v3.842C322.142,361.002,319.728,361.648,317.654,361.648z"/>
	<path d="M331.56,361.682c-5.439,0-7.377-2.89-7.377-9.757c0-7.31,2.38-10.675,7.104-10.675c5.645,0,7.275,3.502,7.275,10.233
		C338.562,358.112,337.237,361.682,331.56,361.682z M331.355,345.296c-1.428,0-1.632,1.258-1.632,6.493
		c0,4.997,0.476,5.508,1.632,5.508c1.225,0,1.666-0.545,1.666-5.508C333.021,346.52,332.75,345.296,331.355,345.296z"/>
	<path d="M353.557,350.565l-4.589,0.85c0.103-0.68,0.17-1.496,0.17-2.516c0-1.802-0.51-2.414-1.428-2.414
		c-1.429,0-1.802,2.414-1.802,5.1v9.791h-5.371v-19.514h5.27c0,0,0.067,2.346,0.067,3.535l0.237-0.68
		c0.578-1.666,1.836-3.229,3.672-3.229c2.754,0,4.046,1.598,4.046,5.031C353.829,348.287,353.693,349.647,353.557,350.565z"/>
	<path d="M365.287,361.546c-0.851,3.195-1.599,5.949-6.053,5.949c-3.773,0-4.725-1.666-4.725-4.147c0-0.476,0.068-0.85,0.136-1.359
		h3.366c-0.068,0.407-0.137,0.884-0.137,1.325c0,0.681,0.374,1.122,1.326,1.122c1.189,0,1.563-1.02,1.563-2.55
		c0-0.544-0.204-1.292-0.442-2.006l-5.949-18.018h5.984l2.719,11.456l2.211-11.456h5.133L365.287,361.546z"/>
</g>
</svg>
